<?xml version="1.0" standalone="no"?>
<!DOCTYPE svg PUBLIC "-//W3C//DTD SVG 20010904//EN"
 "http://www.w3.org/TR/2001/REC-SVG-20010904/DTD/svg10.dtd">
<svg version="1.0" xmlns="http://www.w3.org/2000/svg"
 width="512.000000pt" height="512.000000pt" viewBox="0 0 512.000000 512.000000"
 preserveAspectRatio="xMidYMid meet">
<metadata>
Created by potrace 1.11, written by Peter Selinger 2001-2013
</metadata>
<g transform="translate(0.000000,512.000000) scale(0.100000,-0.100000)"
fill="#000000" stroke="none">
<path d="M2269 4315 c-2 -2 -47 -6 -99 -9 -52 -3 -104 -8 -115 -10 -11 -2 -47
-7 -80 -10 -129 -15 -247 -38 -346 -67 -37 -10 -73 -17 -80 -15 -90 30 -403
30 -561 1 -55 -10 -174 -58 -225 -91 -174 -111 -381 -406 -609 -864 -118 -239
-156 -335 -150 -383 7 -62 12 -70 86 -136 105 -94 149 -172 151 -268 1 -21 8
-67 16 -103 8 -36 16 -72 18 -81 7 -35 80 -167 120 -219 76 -98 168 -166 264
-196 55 -18 59 -21 86 -78 38 -79 93 -151 198 -263 58 -61 96 -112 112 -149
48 -108 141 -188 319 -274 236 -114 686 -246 936 -275 30 -4 59 -9 64 -12 16
-10 291 -12 351 -2 33 5 74 11 90 14 306 46 728 171 948 281 163 82 246 156
303 269 24 48 63 100 126 165 94 99 152 178 189 261 18 39 28 49 53 55 122 25
278 158 353 299 57 109 80 181 88 279 12 138 37 187 147 288 109 101 119 145
63 273 -201 458 -420 826 -606 1015 -108 111 -202 162 -358 196 -101 22 -356
27 -479 9 -79 -11 -99 -11 -140 2 -55 16 -207 49 -272 58 -25 3 -52 8 -60 10
-8 2 -46 7 -85 10 -38 3 -88 8 -110 11 -47 6 -701 14 -706 9z m686 -329 c22
-3 69 -8 105 -11 115 -11 283 -43 353 -67 41 -14 88 -39 116 -63 161 -134 405
-578 530 -965 71 -222 101 -406 96 -605 -2 -77 -6 -149 -8 -160 -46 -190 -70
-233 -202 -370 -98 -101 -116 -125 -155 -203 -20 -42 -44 -72 -72 -92 -23 -17
-43 -28 -45 -26 -2 2 7 42 21 87 96 316 104 550 25 717 -33 68 -106 152 -303
347 -145 144 -264 227 -376 264 -21 7 -44 25 -57 44 -41 65 -152 123 -278 147
-68 13 -289 4 -350 -13 -106 -31 -189 -82 -221 -136 -10 -17 -27 -34 -39 -37
-56 -15 -192 -93 -262 -149 -121 -98 -386 -377 -422 -445 -80 -153 -85 -367
-16 -630 3 -8 8 -31 13 -50 5 -19 18 -61 29 -92 11 -32 17 -58 13 -58 -25 0
-94 67 -112 108 -31 69 -66 117 -158 212 -178 184 -214 282 -214 575 0 183 11
259 64 460 122 458 442 1028 624 1113 43 21 174 55 251 66 134 20 177 25 285
32 52 4 97 8 98 10 6 4 622 -5 667 -10z m-1745 -79 c0 -2 -26 -44 -58 -93
-100 -151 -217 -371 -282 -529 -4 -11 -15 -36 -23 -55 -15 -34 -84 -229 -93
-260 -59 -218 -77 -298 -99 -443 -6 -36 -14 -161 -15 -222 l0 -40 -24 42 c-39
68 -49 104 -61 225 -11 116 -75 256 -156 342 -16 17 -32 39 -35 48 -5 17 184
409 226 468 11 15 20 31 20 34 0 14 127 207 187 283 98 127 170 172 301 192
62 9 112 13 112 8z m2880 -23 c76 -22 103 -37 159 -92 82 -79 191 -238 301
-437 60 -108 210 -414 210 -428 0 -7 -12 -24 -26 -38 -42 -40 -112 -152 -140
-225 -15 -40 -27 -98 -31 -143 -5 -81 -31 -170 -63 -223 l-20 -33 -1 50 c-1
146 -30 346 -74 515 -53 205 -158 479 -263 685 -58 113 -165 294 -208 350 -13
18 -24 35 -24 40 0 11 115 -3 180 -21z m-1399 -1181 c24 -24 -67 -62 -143 -59
-54 3 -120 30 -122 51 -1 5 13 13 29 16 46 10 224 4 236 -8z m-365 -327 c30
-14 59 -26 65 -26 6 0 9 -40 7 -107 l-3 -107 -35 -10 c-42 -12 -151 -69 -188
-99 -63 -51 -161 -157 -200 -216 -65 -101 -68 -171 -11 -235 36 -41 87 -60
141 -53 54 7 81 28 130 99 100 149 198 212 328 213 62 0 85 -5 130 -27 72 -36
130 -89 194 -180 62 -87 100 -111 169 -105 54 5 91 27 125 78 45 65 23 143
-73 269 -96 125 -226 218 -367 264 -16 5 -18 19 -18 110 0 102 0 104 25 110
43 11 138 73 184 119 29 30 49 43 60 39 68 -25 403 -351 442 -429 56 -115 -1
-419 -140 -735 -42 -95 -44 -98 -85 -109 -22 -6 -63 -17 -91 -24 -56 -16 -211
-51 -265 -60 -19 -3 -60 -10 -90 -16 -138 -26 -335 -18 -520 22 -56 12 -307
73 -347 85 -16 4 -34 33 -67 109 -134 306 -192 610 -138 726 13 28 74 99 164
189 147 150 211 206 263 233 29 15 30 15 93 -43 34 -32 87 -70 118 -84z"/>
<path d="M1399 3106 c-120 -42 -191 -133 -195 -250 -3 -82 18 -144 66 -199 74
-84 184 -115 295 -82 73 21 153 97 178 167 33 99 9 217 -61 291 -65 69 -197
103 -283 73z"/>
<path d="M3561 3109 c-46 -14 -115 -62 -144 -102 -60 -81 -72 -200 -29 -289
27 -54 88 -113 141 -135 107 -45 224 -22 307 62 62 61 83 119 80 210 -7 175
-186 303 -355 254z"/>
</g>
</svg>
